<svg id="Layer_1" data-name="Layer 1" xmlns="http://www.w3.org/2000/svg" viewBox="0 0 136.17 49.98">
  <title>icon-logo-footer</title>
  <g>
    <g>
      <path d="M2.88,11.23v0A7,7,0,0,1,10.07,4.1a6.68,6.68,0,0,1,5.79,2.84L13,9.15a3.65,3.65,0,0,0-3-1.6,3.37,3.37,0,0,0-3.25,3.61v0A3.37,3.37,0,0,0,10,14.84a3.73,3.73,0,0,0,3.08-1.66l2.84,2a6.88,6.88,0,0,1-6,3.08A6.93,6.93,0,0,1,2.88,11.23Z" fill="#fff"></path>
      <path d="M16.71,11.23v0A7.14,7.14,0,0,1,24.07,4.1a7.08,7.08,0,0,1,7.33,7.05v0A7.14,7.14,0,0,1,24,18.28,7.08,7.08,0,0,1,16.71,11.23Zm10.83,0v0A3.55,3.55,0,0,0,24,7.51a3.48,3.48,0,0,0-3.45,3.64v0a3.54,3.54,0,0,0,3.49,3.68A3.48,3.48,0,0,0,27.54,11.23Z" fill="#fff"></path>
      <path d="M33.36,4.37h4l3.25,5.28,3.25-5.28h4V18H44.1V10.18l-3.49,5.34H40.53l-3.47-5.3V18h-3.7V4.37Z" fill="#fff"></path>
      <path d="M50.27,4.37h7A5,5,0,0,1,61,5.6a3,3,0,0,1,.88,2.2v0a3.16,3.16,0,0,1-2.1,3c1.66,0.54,2.71,1.48,2.71,3.33v0c0,2.34-1.91,3.76-5.16,3.76h-7V4.37Zm6.06,5.44c1.15,0,1.79-.39,1.79-1.19v0c0-.74-0.58-1.17-1.71-1.17H54v2.4h2.38ZM56.87,15c1.15,0,1.81-.45,1.81-1.25v0c0-.74-0.58-1.23-1.85-1.23H54V15h2.92Z" fill="#fff"></path>
      <path d="M68.91,4.28h3.64L78.36,18H74.31l-1-2.44H68.06l-1,2.44h-4Zm3.31,8.36L70.7,8.76l-1.54,3.88h3.06Z" fill="#fff"></path>
      <path d="M81.26,7.68H77.17V4.37h12V7.68H85V18H81.26V7.68Z" fill="#fff"></path>
      <path d="M90.79,4.37h11V7.59H94.53V9.65h6.55v3H94.53V14.8h7.33V18H90.79V4.37Z" fill="#fff"></path>
      <path d="M114.71,4.19h3.64l5.81,13.74h-4.05l-1-2.44h-5.26l-1,2.44h-4Zm3.29-1h-2.77l-2.88-2.08L115.88,0Zm0,9.39L116.5,8.67,115,12.55H118Z" fill="#fff"></path>
      <path d="M124.25,15.9l2.1-2.51A7,7,0,0,0,130.78,15c1,0,1.56-.35,1.56-0.94v0c0-.56-0.45-0.88-2.3-1.31-2.9-.66-5.14-1.48-5.14-4.29v0c0-2.53,2-4.36,5.28-4.36a8.58,8.58,0,0,1,5.61,1.81L133.9,8.53a6.84,6.84,0,0,0-3.82-1.34c-0.92,0-1.36.39-1.36,0.88v0c0,0.62.47,0.9,2.36,1.33,3.14,0.68,5.09,1.69,5.09,4.25v0c0,2.79-2.2,4.44-5.51,4.44A9.53,9.53,0,0,1,124.25,15.9Z" fill="#fff"></path>
    </g>
    <g>
      <path d="M3.66,24.47H14.57l-0.9,3.31H6.57L6,29.72h6.43l-0.84,3.15H5.19L3.8,38.1H0Z" fill="#fff"></path>
      <path d="M19.81,24.37h3.7L25.64,38.1h-4l-0.33-2.44H16.07L14.43,38.1H10.32ZM21,32.73l-0.49-3.92L18,32.73h3Z" fill="#fff"></path>
      <path d="M30.29,24.47h3.8l-1.48,5.46,5.63-5.46h4.81l-6.43,6,3,7.66H35.57l-2-5.26L31.24,35l-0.82,3.1h-3.8Z" fill="#fff"></path>
      <path d="M44.35,24.47H55.28l-0.88,3.21H47.24l-0.59,2.15h6.51l-0.77,2.9H45.87l-0.58,2.16h7.29L51.72,38.1h-11Z" fill="#fff"></path>
      <path d="M62.78,24.47h3.53L69.83,32l2-7.58h3.76L72,38.1H68.66L65,30.25l-2.1,7.85H59.12Z" fill="#fff"></path>
      <path d="M78,24.47H88.92L88,27.68H80.88l-0.59,2.14h6.51L86,32.73H79.51l-0.59,2.16h7.29L85.36,38.1h-11Z" fill="#fff"></path>
      <path d="M89.87,24.47h3.92L94,32.36l4.71-7.93H102l0.53,7.93L107,24.47h4.11L102.91,38.2H99.52L98.9,30.45,94.12,38.2H90.75Z" fill="#fff"></path>
      <path d="M108.51,35.84l2.43-2.51a6.11,6.11,0,0,0,4.21,1.85c0.9,0,1.54-.39,1.54-1s-0.37-.8-2.28-1.54c-2.16-.82-3.55-1.75-3.55-3.76,0-2.71,2.45-4.64,5.79-4.64a7.88,7.88,0,0,1,5.59,2l-2.34,2.61a5.46,5.46,0,0,0-3.6-1.5c-0.92,0-1.48.43-1.48,1s0.41,0.74,2.28,1.48c2.1,0.8,3.55,1.75,3.55,3.8,0,2.81-2.42,4.71-5.81,4.71A8.41,8.41,0,0,1,108.51,35.84Z" fill="#fff"></path>
    </g>
    <g>
      <path d="M0.17,47.53V44.42H1.12v3.07A1.33,1.33,0,0,0,2.49,49a1.3,1.3,0,0,0,1.36-1.5V44.42H4.8v3.06A2.16,2.16,0,0,1,2.47,49.9,2.13,2.13,0,0,1,.17,47.53Z" fill="#fff"></path>
      <path d="M6.74,44.42h1L9.4,47,11,44.42h1v5.4H11.1V45.95L9.4,48.49h0L7.68,46v3.86H6.74v-5.4Z" fill="#fff"></path>
      <path d="M16,44.38h0.88l2.38,5.44h-1l-0.55-1.3H15.15l-0.56,1.3h-1Zm1.36,3.29-0.93-2.16L15.5,47.67h1.86Z" fill="#fff"></path>
      <path d="M28,49.4a2.79,2.79,0,0,1-1.64.51,2.74,2.74,0,0,1-2.82-2.78v0a2.82,2.82,0,0,1,5.65,0v0a2.74,2.74,0,0,1-.55,1.66l0.62,0.53L28.65,50Zm-0.7-.63L26.38,48,27,47.3l0.93,0.85a1.84,1.84,0,0,0,.28-1v0a1.85,1.85,0,0,0-1.84-1.92,1.82,1.82,0,0,0-1.82,1.91v0A1.85,1.85,0,0,0,26.38,49,1.71,1.71,0,0,0,27.31,48.78Z" fill="#fff"></path>
      <path d="M30.9,47.53V44.42h0.95v3.07A1.33,1.33,0,0,0,33.22,49a1.3,1.3,0,0,0,1.36-1.5V44.42h0.95v3.06A2.16,2.16,0,0,1,33.2,49.9,2.13,2.13,0,0,1,30.9,47.53Z" fill="#fff"></path>
      <path d="M37.47,44.42h4v0.85H38.42v1.4h2.71v0.85H38.42V49h3.09v0.85h-4v-5.4Z" fill="#fff"></path>
      <path d="M42.92,49l0.57-.68a2.49,2.49,0,0,0,1.71.7,0.8,0.8,0,0,0,1-.68v0c0-.39-0.22-0.59-1.22-0.83s-1.8-.62-1.8-1.61v0A1.65,1.65,0,0,1,45,44.34a3,3,0,0,1,2,.68l-0.51.72A2.45,2.45,0,0,0,45,45.18a0.75,0.75,0,0,0-.88.64v0c0,0.42.25,0.6,1.28,0.85s1.74,0.69,1.74,1.58v0a1.68,1.68,0,0,1-1.93,1.61A3.33,3.33,0,0,1,42.92,49Z" fill="#fff"></path>
      <path d="M50.08,45.3H48.37V44.42h4.38V45.3H51v4.52h-1V45.3Z" fill="#fff"></path>
      <path d="M55.62,44.38H56.5l2.38,5.44h-1l-0.55-1.3H54.77l-0.56,1.3h-1Zm-1-.57a1,1,0,0,1,.86-0.95,11.52,11.52,0,0,1,1.13.3A0.45,0.45,0,0,0,57,42.79l0.53,0.15a1,1,0,0,1-.86.95,11.49,11.49,0,0,1-1.13-.3,0.46,0.46,0,0,0-.43.38ZM57,47.67L56,45.51l-0.93,2.16H57Z" fill="#fff"></path>
      <path d="M59.87,47.13v0a2.82,2.82,0,0,1,5.65,0v0A2.82,2.82,0,0,1,59.87,47.13Zm4.65,0v0a1.85,1.85,0,0,0-1.84-1.92,1.82,1.82,0,0,0-1.82,1.91v0A1.85,1.85,0,0,0,62.71,49,1.82,1.82,0,0,0,64.53,47.13Z" fill="#fff"></path>
      <path d="M70.28,44.42h2a2.69,2.69,0,0,1,2.87,2.69v0a2.7,2.7,0,0,1-2.87,2.7h-2v-5.4Zm2,4.54a1.76,1.76,0,0,0,1.87-1.82v0a1.77,1.77,0,0,0-1.87-1.84H71.23V49h1.06Z" fill="#fff"></path>
      <path d="M77,44.42h4v0.85H77.9v1.4h2.71v0.85H77.9V49H81v0.85H77v-5.4Z" fill="#fff"></path>
      <path d="M82.77,44.42h1L85.42,47l1.64-2.55h1v5.4H87.13V45.95l-1.71,2.55h0L83.7,46v3.86H82.77v-5.4Z" fill="#fff"></path>
      <path d="M89.87,47.13v0a2.82,2.82,0,0,1,5.65,0v0A2.82,2.82,0,0,1,89.87,47.13Zm4.65,0v0a1.85,1.85,0,0,0-1.84-1.92,1.82,1.82,0,0,0-1.82,1.91v0A1.85,1.85,0,0,0,92.7,49,1.82,1.82,0,0,0,94.52,47.13Z" fill="#fff"></path>
      <path d="M97.07,47.13v0a2.73,2.73,0,0,1,2.79-2.79,2.81,2.81,0,0,1,2.11.84l-0.61.7a2.15,2.15,0,0,0-1.51-.67,1.81,1.81,0,0,0-1.78,1.91v0A1.83,1.83,0,0,0,99.85,49a2.12,2.12,0,0,0,1.55-.7L102,49a2.79,2.79,0,0,1-2.19,1A2.72,2.72,0,0,1,97.07,47.13Z" fill="#fff"></path>
      <path d="M103.65,44.42h2.41a2.17,2.17,0,0,1,1.56.54,1.63,1.63,0,0,1,.45,1.17v0a1.62,1.62,0,0,1-1.29,1.64l1.46,2h-1.12l-1.33-1.88H104.6v1.88h-0.95v-5.4ZM106,47.1a1,1,0,0,0,1.11-.9v0a0.93,0.93,0,0,0-1.12-.9H104.6V47.1H106Z" fill="#fff"></path>
      <path d="M111.79,44.38h0.88L115,49.82h-1l-0.55-1.3h-2.55l-0.56,1.3h-1Zm1.36,3.29-0.93-2.16-0.93,2.16h1.86Zm-0.44-4.9,0.85,0.37-1,.75h-0.73Z" fill="#fff"></path>
      <path d="M117.25,45.3h-1.71V44.42h4.38V45.3H118.2v4.52h-1V45.3Z" fill="#fff"></path>
      <path d="M121.62,44.42h0.95v5.4h-0.95v-5.4Z" fill="#fff"></path>
      <path d="M124.42,47.13v0a2.73,2.73,0,0,1,2.79-2.79,2.81,2.81,0,0,1,2.11.84l-0.61.7a2.15,2.15,0,0,0-1.51-.67,1.81,1.81,0,0,0-1.78,1.91v0A1.83,1.83,0,0,0,127.2,49a2.12,2.12,0,0,0,1.55-.7L129.36,49a2.79,2.79,0,0,1-2.19,1A2.72,2.72,0,0,1,124.42,47.13Z" fill="#fff"></path>
      <path d="M132.91,44.38h0.88l2.38,5.44h-1l-0.55-1.3h-2.55l-0.56,1.3h-1Zm1.36,3.29-0.93-2.16-0.93,2.16h1.86Z" fill="#fff"></path>
    </g>
    <polygon points="115.03 32.87 8.6 32.87 9.43 29.72 115.86 29.72 115.03 32.87" fill="#fff"></polygon>
  </g>
</svg>